<?xml version='1.0' standalone='no'?>
<svg width='173.923828125' height='92.966796875' version='1.1' xmlns='http://www.w3.org/2000/svg' contentScriptType='text/javascript'>
<script  id="clientEventHandlersJS">
function OnClickLingTreeNode(node){}
</script>
<rect width="100%" height="100%" fill="#ffffff"/>
<text x="10.0" y="20.0" font-family="Arial" font-size="14.0" fill="#000000">p</text>
<line x1="10.0" y1="22.966796875" x2="17.7861328125" y2="22.966796875" stroke="#000000" stroke-width="1.0"/>
<text x="37.7861328125" y="20.0" font-family="Arial" font-size="14.0" fill="#000000">in</text>
<line x1="37.7861328125" y1="22.966796875" x2="48.6826171875" y2="22.966796875" stroke="#000000" stroke-width="1.0"/>
<text x="68.6826171875" y="20.0" font-family="Arial" font-size="14.0" fill="#000000">a-</text>
<line x1="68.6826171875" y1="22.966796875" x2="81.130859375" y2="22.966796875" stroke="#000000" stroke-width="1.0"/>
<text x="101.130859375" y="20.0" font-family="Arial" font-size="14.0" fill="#000000">m-</text>
<line x1="101.130859375" y1="22.966796875" x2="117.455078125" y2="22.966796875" stroke="#000000" stroke-width="1.0"/>
<text x="137.455078125" y="20.0" font-family="Arial" font-size="14.0" fill="#000000">ulod</text>
<line x1="137.455078125" y1="22.966796875" x2="163.923828125" y2="22.966796875" stroke="#000000" stroke-width="1.0"/>
<line x1="43.234375" y1="82.966796875" x2="87.7783203125" y2="82.966796875" stroke="#000000" stroke-width="1.0"/>
<line x1="43.234375" y1="82.966796875" x2="43.234375" y2="22.966796875" stroke="#000000" stroke-width="1.0"/>
<line x1="45.5654296875" y1="62.966796875" x2="129.9912109375" y2="62.966796875" stroke="#000000" stroke-width="1.0"/>
<line x1="13.89306640625" y1="42.966796875" x2="74.90673828125" y2="42.966796875" stroke="#000000" stroke-width="1.0" stroke-dasharray="2.5"/>
<line x1="13.89306640625" y1="42.966796875" x2="13.89306640625" y2="22.966796875" stroke="#000000" stroke-width="1.0" stroke-dasharray="2.5"/>
<line x1="74.90673828125" y1="42.966796875" x2="74.90673828125" y2="22.966796875" stroke="#000000" stroke-width="1.0" stroke-dasharray="2.5"/>
<line x1="45.5654296875" y1="42.966796875" x2="45.5654296875" y2="62.966796875" stroke="#000000" stroke-width="1.0"/>
<line x1="109.29296875" y1="42.966796875" x2="150.689453125" y2="42.966796875" stroke="#000000" stroke-width="1.0"/>
<line x1="109.29296875" y1="42.966796875" x2="109.29296875" y2="22.966796875" stroke="#000000" stroke-width="1.0"/>
<line x1="150.689453125" y1="42.966796875" x2="150.689453125" y2="22.966796875" stroke="#000000" stroke-width="1.0"/>
<line x1="129.9912109375" y1="62.966796875" x2="129.9912109375" y2="42.966796875" stroke="#000000" stroke-width="1.0"/>
<line x1="87.7783203125" y1="82.966796875" x2="87.7783203125" y2="62.966796875" stroke="#000000" stroke-width="1.0"/>
<text x="10.0" y="20.0" font-family="Arial" font-size="14.0" fill="#000000">p</text>
<line x1="10.0" y1="22.966796875" x2="17.7861328125" y2="22.966796875" stroke="#000000" stroke-width="1.0"/>
<text x="37.7861328125" y="20.0" font-family="Arial" font-size="14.0" fill="#000000">in</text>
<line x1="37.7861328125" y1="22.966796875" x2="48.6826171875" y2="22.966796875" stroke="#000000" stroke-width="1.0"/>
<text x="68.6826171875" y="20.0" font-family="Arial" font-size="14.0" fill="#000000">a-</text>
<line x1="68.6826171875" y1="22.966796875" x2="81.130859375" y2="22.966796875" stroke="#000000" stroke-width="1.0"/>
<text x="101.130859375" y="20.0" font-family="Arial" font-size="14.0" fill="#000000">m-</text>
<line x1="101.130859375" y1="22.966796875" x2="117.455078125" y2="22.966796875" stroke="#000000" stroke-width="1.0"/>
<text x="137.455078125" y="20.0" font-family="Arial" font-size="14.0" fill="#000000">ulod</text>
<line x1="137.455078125" y1="22.966796875" x2="163.923828125" y2="22.966796875" stroke="#000000" stroke-width="1.0"/>
<line x1="43.234375" y1="82.966796875" x2="87.7783203125" y2="82.966796875" stroke="#000000" stroke-width="1.0"/>
<line x1="43.234375" y1="82.966796875" x2="43.234375" y2="22.966796875" stroke="#000000" stroke-width="1.0"/>
<line x1="45.5654296875" y1="62.966796875" x2="129.9912109375" y2="62.966796875" stroke="#000000" stroke-width="1.0"/>
<line x1="13.89306640625" y1="42.966796875" x2="74.90673828125" y2="42.966796875" stroke="#000000" stroke-width="1.0" stroke-dasharray="2.5"/>
<line x1="13.89306640625" y1="42.966796875" x2="13.89306640625" y2="22.966796875" stroke="#000000" stroke-width="1.0" stroke-dasharray="2.5"/>
<line x1="74.90673828125" y1="42.966796875" x2="74.90673828125" y2="22.966796875" stroke="#000000" stroke-width="1.0" stroke-dasharray="2.5"/>
<line x1="45.5654296875" y1="42.966796875" x2="45.5654296875" y2="62.966796875" stroke="#000000" stroke-width="1.0"/>
<line x1="109.29296875" y1="42.966796875" x2="150.689453125" y2="42.966796875" stroke="#000000" stroke-width="1.0"/>
<line x1="109.29296875" y1="42.966796875" x2="109.29296875" y2="22.966796875" stroke="#000000" stroke-width="1.0"/>
<line x1="150.689453125" y1="42.966796875" x2="150.689453125" y2="22.966796875" stroke="#000000" stroke-width="1.0"/>
<line x1="129.9912109375" y1="62.966796875" x2="129.9912109375" y2="42.966796875" stroke="#000000" stroke-width="1.0"/>
<line x1="87.7783203125" y1="82.966796875" x2="87.7783203125" y2="62.966796875" stroke="#000000" stroke-width="1.0"/>
</svg>
