<?xml version='1.0' standalone='no'?>
<svg width='268.9443359375' height='152.966796875' version='1.1' xmlns='http://www.w3.org/2000/svg' contentScriptType='text/javascript'>
<script  id="clientEventHandlersJS">
function OnClickLingTreeNode(node){}
</script>
<rect width="100%" height="100%" fill="#ffffff"/>
<text x="10.0" y="20.0" font-family="Arial" font-size="14.0" fill="#000000">g</text>
<line x1="10.0" y1="22.966796875" x2="17.7861328125" y2="22.966796875" stroke="#000000" stroke-width="1.0"/>
<text x="37.7861328125" y="20.0" font-family="Arial" font-size="14.0" fill="#000000">in</text>
<line x1="37.7861328125" y1="22.966796875" x2="48.6826171875" y2="22.966796875" stroke="#000000" stroke-width="1.0"/>
<text x="68.6826171875" y="20.0" font-family="Arial" font-size="14.0" fill="#000000">pí-</text>
<line x1="68.6826171875" y1="22.966796875" x2="85.0205078125" y2="22.966796875" stroke="#000000" stroke-width="1.0"/>
<text x="105.0205078125" y="20.0" font-family="Arial" font-size="14.0" fill="#000000">p</text>
<line x1="105.0205078125" y1="22.966796875" x2="112.806640625" y2="22.966796875" stroke="#000000" stroke-width="1.0"/>
<text x="132.806640625" y="20.0" font-family="Arial" font-size="14.0" fill="#000000">in</text>
<line x1="132.806640625" y1="22.966796875" x2="143.703125" y2="22.966796875" stroke="#000000" stroke-width="1.0"/>
<text x="163.703125" y="20.0" font-family="Arial" font-size="14.0" fill="#000000">a-</text>
<line x1="163.703125" y1="22.966796875" x2="176.1513671875" y2="22.966796875" stroke="#000000" stroke-width="1.0"/>
<text x="196.1513671875" y="20.0" font-family="Arial" font-size="14.0" fill="#000000">m-</text>
<line x1="196.1513671875" y1="22.966796875" x2="212.4755859375" y2="22.966796875" stroke="#000000" stroke-width="1.0"/>
<text x="232.4755859375" y="20.0" font-family="Arial" font-size="14.0" fill="#000000">ulod</text>
<line x1="232.4755859375" y1="22.966796875" x2="258.9443359375" y2="22.966796875" stroke="#000000" stroke-width="1.0"/>
<line x1="43.234375" y1="142.966796875" x2="66.2911376953125" y2="142.966796875" stroke="#000000" stroke-width="1.0"/>
<line x1="43.234375" y1="142.966796875" x2="43.234375" y2="22.966796875" stroke="#000000" stroke-width="1.0"/>
<line x1="13.89306640625" y1="122.966796875" x2="118.689208984375" y2="122.966796875" stroke="#000000" stroke-width="1.0"/>
<line x1="13.89306640625" y1="122.966796875" x2="13.89306640625" y2="22.966796875" stroke="#000000" stroke-width="1.0"/>
<line x1="76.8515625" y1="102.966796875" x2="160.52685546875" y2="102.966796875" stroke="#000000" stroke-width="1.0"/>
<line x1="76.8515625" y1="102.966796875" x2="76.8515625" y2="22.966796875" stroke="#000000" stroke-width="1.0"/>
<line x1="138.2548828125" y1="82.966796875" x2="182.798828125" y2="82.966796875" stroke="#000000" stroke-width="1.0"/>
<line x1="138.2548828125" y1="82.966796875" x2="138.2548828125" y2="22.966796875" stroke="#000000" stroke-width="1.0"/>
<line x1="140.5859375" y1="62.966796875" x2="225.01171875" y2="62.966796875" stroke="#000000" stroke-width="1.0"/>
<line x1="108.91357421875" y1="42.966796875" x2="169.92724609375" y2="42.966796875" stroke="#000000" stroke-width="1.0"/>
<line x1="108.91357421875" y1="42.966796875" x2="108.91357421875" y2="22.966796875" stroke="#000000" stroke-width="1.0"/>
<line x1="169.92724609375" y1="42.966796875" x2="169.92724609375" y2="22.966796875" stroke="#000000" stroke-width="1.0"/>
<line x1="140.5859375" y1="42.966796875" x2="140.5859375" y2="62.966796875" stroke="#000000" stroke-width="1.0"/>
<line x1="204.3134765625" y1="42.966796875" x2="245.7099609375" y2="42.966796875" stroke="#000000" stroke-width="1.0"/>
<line x1="204.3134765625" y1="42.966796875" x2="204.3134765625" y2="22.966796875" stroke="#000000" stroke-width="1.0"/>
<line x1="245.7099609375" y1="42.966796875" x2="245.7099609375" y2="22.966796875" stroke="#000000" stroke-width="1.0"/>
<line x1="225.01171875" y1="62.966796875" x2="225.01171875" y2="42.966796875" stroke="#000000" stroke-width="1.0"/>
<line x1="182.798828125" y1="82.966796875" x2="182.798828125" y2="62.966796875" stroke="#000000" stroke-width="1.0"/>
<line x1="160.52685546875" y1="102.966796875" x2="160.52685546875" y2="82.966796875" stroke="#000000" stroke-width="1.0"/>
<line x1="118.689208984375" y1="122.966796875" x2="118.689208984375" y2="102.966796875" stroke="#000000" stroke-width="1.0"/>
<line x1="66.2911376953125" y1="142.966796875" x2="66.2911376953125" y2="122.966796875" stroke="#000000" stroke-width="1.0"/>
<text x="10.0" y="20.0" font-family="Arial" font-size="14.0" fill="#000000">g</text>
<line x1="10.0" y1="22.966796875" x2="17.7861328125" y2="22.966796875" stroke="#000000" stroke-width="1.0"/>
<text x="37.7861328125" y="20.0" font-family="Arial" font-size="14.0" fill="#000000">in</text>
<line x1="37.7861328125" y1="22.966796875" x2="48.6826171875" y2="22.966796875" stroke="#000000" stroke-width="1.0"/>
<text x="68.6826171875" y="20.0" font-family="Arial" font-size="14.0" fill="#000000">pí-</text>
<line x1="68.6826171875" y1="22.966796875" x2="85.0205078125" y2="22.966796875" stroke="#000000" stroke-width="1.0"/>
<text x="105.0205078125" y="20.0" font-family="Arial" font-size="14.0" fill="#000000">p</text>
<line x1="105.0205078125" y1="22.966796875" x2="112.806640625" y2="22.966796875" stroke="#000000" stroke-width="1.0"/>
<text x="132.806640625" y="20.0" font-family="Arial" font-size="14.0" fill="#000000">in</text>
<line x1="132.806640625" y1="22.966796875" x2="143.703125" y2="22.966796875" stroke="#000000" stroke-width="1.0"/>
<text x="163.703125" y="20.0" font-family="Arial" font-size="14.0" fill="#000000">a-</text>
<line x1="163.703125" y1="22.966796875" x2="176.1513671875" y2="22.966796875" stroke="#000000" stroke-width="1.0"/>
<text x="196.1513671875" y="20.0" font-family="Arial" font-size="14.0" fill="#000000">m-</text>
<line x1="196.1513671875" y1="22.966796875" x2="212.4755859375" y2="22.966796875" stroke="#000000" stroke-width="1.0"/>
<text x="232.4755859375" y="20.0" font-family="Arial" font-size="14.0" fill="#000000">ulod</text>
<line x1="232.4755859375" y1="22.966796875" x2="258.9443359375" y2="22.966796875" stroke="#000000" stroke-width="1.0"/>
<line x1="43.234375" y1="142.966796875" x2="66.2911376953125" y2="142.966796875" stroke="#000000" stroke-width="1.0"/>
<line x1="43.234375" y1="142.966796875" x2="43.234375" y2="22.966796875" stroke="#000000" stroke-width="1.0"/>
<line x1="13.89306640625" y1="122.966796875" x2="118.689208984375" y2="122.966796875" stroke="#000000" stroke-width="1.0"/>
<line x1="13.89306640625" y1="122.966796875" x2="13.89306640625" y2="22.966796875" stroke="#000000" stroke-width="1.0"/>
<line x1="76.8515625" y1="102.966796875" x2="160.52685546875" y2="102.966796875" stroke="#000000" stroke-width="1.0"/>
<line x1="76.8515625" y1="102.966796875" x2="76.8515625" y2="22.966796875" stroke="#000000" stroke-width="1.0"/>
<line x1="138.2548828125" y1="82.966796875" x2="182.798828125" y2="82.966796875" stroke="#000000" stroke-width="1.0"/>
<line x1="138.2548828125" y1="82.966796875" x2="138.2548828125" y2="22.966796875" stroke="#000000" stroke-width="1.0"/>
<line x1="140.5859375" y1="62.966796875" x2="225.01171875" y2="62.966796875" stroke="#000000" stroke-width="1.0"/>
<line x1="108.91357421875" y1="42.966796875" x2="169.92724609375" y2="42.966796875" stroke="#000000" stroke-width="1.0"/>
<line x1="108.91357421875" y1="42.966796875" x2="108.91357421875" y2="22.966796875" stroke="#000000" stroke-width="1.0"/>
<line x1="169.92724609375" y1="42.966796875" x2="169.92724609375" y2="22.966796875" stroke="#000000" stroke-width="1.0"/>
<line x1="140.5859375" y1="42.966796875" x2="140.5859375" y2="62.966796875" stroke="#000000" stroke-width="1.0"/>
<line x1="204.3134765625" y1="42.966796875" x2="245.7099609375" y2="42.966796875" stroke="#000000" stroke-width="1.0"/>
<line x1="204.3134765625" y1="42.966796875" x2="204.3134765625" y2="22.966796875" stroke="#000000" stroke-width="1.0"/>
<line x1="245.7099609375" y1="42.966796875" x2="245.7099609375" y2="22.966796875" stroke="#000000" stroke-width="1.0"/>
<line x1="225.01171875" y1="62.966796875" x2="225.01171875" y2="42.966796875" stroke="#000000" stroke-width="1.0"/>
<line x1="182.798828125" y1="82.966796875" x2="182.798828125" y2="62.966796875" stroke="#000000" stroke-width="1.0"/>
<line x1="160.52685546875" y1="102.966796875" x2="160.52685546875" y2="82.966796875" stroke="#000000" stroke-width="1.0"/>
<line x1="118.689208984375" y1="122.966796875" x2="118.689208984375" y2="102.966796875" stroke="#000000" stroke-width="1.0"/>
<line x1="66.2911376953125" y1="142.966796875" x2="66.2911376953125" y2="122.966796875" stroke="#000000" stroke-width="1.0"/>
</svg>
