<?xml version='1.0' standalone='no'?>
<svg width='180.9853515625' height='112.966796875' version='1.1' xmlns='http://www.w3.org/2000/svg' contentScriptType='text/javascript'>
<script  id="clientEventHandlersJS">
function OnClickLingTreeNode(node){}
</script>
<rect width="100%" height="100%" fill="#ffffff"/>
<text x="10.0" y="20.0" font-family="Arial" font-size="14.0" fill="#000000">p</text>
<line x1="10.0" y1="22.966796875" x2="17.7861328125" y2="22.966796875" stroke="#000000" stroke-width="1.0"/>
<text x="37.7861328125" y="20.0" font-family="Arial" font-size="14.0" fill="#000000">in</text>
<line x1="37.7861328125" y1="22.966796875" x2="48.6826171875" y2="22.966796875" stroke="#000000" stroke-width="1.0"/>
<text x="68.6826171875" y="20.0" font-family="Arial" font-size="14.0" fill="#000000">ag</text>
<line x1="68.6826171875" y1="22.966796875" x2="84.2548828125" y2="22.966796875" stroke="#000000" stroke-width="1.0"/>
<text x="104.2548828125" y="20.0" font-family="Arial" font-size="14.0" fill="#000000">–arál</text>
<line x1="104.2548828125" y1="22.966796875" x2="135.4130859375" y2="22.966796875" stroke="#000000" stroke-width="1.0"/>
<text x="155.4130859375" y="20.0" font-family="Arial" font-size="14.0" fill="#000000">an</text>
<line x1="155.4130859375" y1="22.966796875" x2="170.9853515625" y2="22.966796875" stroke="#000000" stroke-width="1.0"/>
<line x1="43.234375" y1="102.966796875" x2="123.3399658203125" y2="102.966796875" stroke="#000000" stroke-width="1.0"/>
<line x1="43.234375" y1="102.966796875" x2="43.234375" y2="22.966796875" stroke="#000000" stroke-width="1.0"/>
<line x1="83.480712890625" y1="82.966796875" x2="163.19921875" y2="82.966796875" stroke="#000000" stroke-width="1.0"/>
<line x1="47.12744140625" y1="62.966796875" x2="119.833984375" y2="62.966796875" stroke="#000000" stroke-width="1.0"/>
<line x1="13.89306640625" y1="42.966796875" x2="76.46875" y2="42.966796875" stroke="#000000" stroke-width="1.0"/>
<line x1="13.89306640625" y1="42.966796875" x2="13.89306640625" y2="22.966796875" stroke="#000000" stroke-width="1.0"/>
<line x1="76.46875" y1="42.966796875" x2="76.46875" y2="22.966796875" stroke="#000000" stroke-width="1.0"/>
<line x1="47.12744140625" y1="42.966796875" x2="47.12744140625" y2="62.966796875" stroke="#000000" stroke-width="1.0"/>
<line x1="119.833984375" y1="62.966796875" x2="119.833984375" y2="22.966796875" stroke="#000000" stroke-width="1.0"/>
<line x1="83.480712890625" y1="82.966796875" x2="83.480712890625" y2="62.966796875" stroke="#000000" stroke-width="1.0"/>
<line x1="163.19921875" y1="82.966796875" x2="163.19921875" y2="22.966796875" stroke="#000000" stroke-width="1.0"/>
<line x1="123.3399658203125" y1="102.966796875" x2="123.3399658203125" y2="82.966796875" stroke="#000000" stroke-width="1.0"/>
<text x="10.0" y="20.0" font-family="Arial" font-size="14.0" fill="#000000">p</text>
<line x1="10.0" y1="22.966796875" x2="17.7861328125" y2="22.966796875" stroke="#000000" stroke-width="1.0"/>
<text x="37.7861328125" y="20.0" font-family="Arial" font-size="14.0" fill="#000000">in</text>
<line x1="37.7861328125" y1="22.966796875" x2="48.6826171875" y2="22.966796875" stroke="#000000" stroke-width="1.0"/>
<text x="68.6826171875" y="20.0" font-family="Arial" font-size="14.0" fill="#000000">ag</text>
<line x1="68.6826171875" y1="22.966796875" x2="84.2548828125" y2="22.966796875" stroke="#000000" stroke-width="1.0"/>
<text x="104.2548828125" y="20.0" font-family="Arial" font-size="14.0" fill="#000000">–arál</text>
<line x1="104.2548828125" y1="22.966796875" x2="135.4130859375" y2="22.966796875" stroke="#000000" stroke-width="1.0"/>
<text x="155.4130859375" y="20.0" font-family="Arial" font-size="14.0" fill="#000000">an</text>
<line x1="155.4130859375" y1="22.966796875" x2="170.9853515625" y2="22.966796875" stroke="#000000" stroke-width="1.0"/>
<line x1="43.234375" y1="102.966796875" x2="123.3399658203125" y2="102.966796875" stroke="#000000" stroke-width="1.0"/>
<line x1="43.234375" y1="102.966796875" x2="43.234375" y2="22.966796875" stroke="#000000" stroke-width="1.0"/>
<line x1="83.480712890625" y1="82.966796875" x2="163.19921875" y2="82.966796875" stroke="#000000" stroke-width="1.0"/>
<line x1="47.12744140625" y1="62.966796875" x2="119.833984375" y2="62.966796875" stroke="#000000" stroke-width="1.0"/>
<line x1="13.89306640625" y1="42.966796875" x2="76.46875" y2="42.966796875" stroke="#000000" stroke-width="1.0"/>
<line x1="13.89306640625" y1="42.966796875" x2="13.89306640625" y2="22.966796875" stroke="#000000" stroke-width="1.0"/>
<line x1="76.46875" y1="42.966796875" x2="76.46875" y2="22.966796875" stroke="#000000" stroke-width="1.0"/>
<line x1="47.12744140625" y1="42.966796875" x2="47.12744140625" y2="62.966796875" stroke="#000000" stroke-width="1.0"/>
<line x1="119.833984375" y1="62.966796875" x2="119.833984375" y2="22.966796875" stroke="#000000" stroke-width="1.0"/>
<line x1="83.480712890625" y1="82.966796875" x2="83.480712890625" y2="62.966796875" stroke="#000000" stroke-width="1.0"/>
<line x1="163.19921875" y1="82.966796875" x2="163.19921875" y2="22.966796875" stroke="#000000" stroke-width="1.0"/>
<line x1="123.3399658203125" y1="102.966796875" x2="123.3399658203125" y2="82.966796875" stroke="#000000" stroke-width="1.0"/>
</svg>
