<?xml version='1.0' standalone='no'?>
<svg width='119.1513671875' height='72.966796875' version='1.1' xmlns='http://www.w3.org/2000/svg' contentScriptType='text/javascript'>
<script  id="clientEventHandlersJS">
function OnClickLingTreeNode(node){}
</script>
<rect width="100%" height="100%" fill="#ffffff"/>
<text x="10.0" y="20.0" font-family="Arial" font-size="14.0" fill="#000000">a</text>
<line x1="10.0" y1="22.966796875" x2="17.7861328125" y2="22.966796875" stroke="#000000" stroke-width="1.0"/>
<text x="37.7861328125" y="20.0" font-family="Arial" font-size="14.0" fill="#000000">lock</text>
<line x1="37.7861328125" y1="22.966796875" x2="62.6826171875" y2="22.966796875" stroke="#000000" stroke-width="1.0"/>
<text x="82.6826171875" y="20.0" font-family="Arial" font-size="14.0" fill="#000000">able</text>
<line x1="82.6826171875" y1="22.966796875" x2="109.1513671875" y2="22.966796875" stroke="#000000" stroke-width="1.0"/>
<line x1="13.89306640625" y1="62.966796875" x2="73.07568359375" y2="62.966796875" stroke="#000000" stroke-width="1.0"/>
<line x1="13.89306640625" y1="62.966796875" x2="13.89306640625" y2="22.966796875" stroke="#000000" stroke-width="1.0"/>
<line x1="50.234375" y1="42.966796875" x2="95.9169921875" y2="42.966796875" stroke="#000000" stroke-width="1.0"/>
<line x1="50.234375" y1="42.966796875" x2="50.234375" y2="22.966796875" stroke="#000000" stroke-width="1.0"/>
<line x1="95.9169921875" y1="42.966796875" x2="95.9169921875" y2="22.966796875" stroke="#000000" stroke-width="1.0"/>
<line x1="73.07568359375" y1="62.966796875" x2="73.07568359375" y2="42.966796875" stroke="#000000" stroke-width="1.0"/>
<text x="10.0" y="20.0" font-family="Arial" font-size="14.0" fill="#000000">a</text>
<line x1="10.0" y1="22.966796875" x2="17.7861328125" y2="22.966796875" stroke="#000000" stroke-width="1.0"/>
<text x="37.7861328125" y="20.0" font-family="Arial" font-size="14.0" fill="#000000">lock</text>
<line x1="37.7861328125" y1="22.966796875" x2="62.6826171875" y2="22.966796875" stroke="#000000" stroke-width="1.0"/>
<text x="82.6826171875" y="20.0" font-family="Arial" font-size="14.0" fill="#000000">able</text>
<line x1="82.6826171875" y1="22.966796875" x2="109.1513671875" y2="22.966796875" stroke="#000000" stroke-width="1.0"/>
<line x1="13.89306640625" y1="62.966796875" x2="73.07568359375" y2="62.966796875" stroke="#000000" stroke-width="1.0"/>
<line x1="13.89306640625" y1="62.966796875" x2="13.89306640625" y2="22.966796875" stroke="#000000" stroke-width="1.0"/>
<line x1="50.234375" y1="42.966796875" x2="95.9169921875" y2="42.966796875" stroke="#000000" stroke-width="1.0"/>
<line x1="50.234375" y1="42.966796875" x2="50.234375" y2="22.966796875" stroke="#000000" stroke-width="1.0"/>
<line x1="95.9169921875" y1="42.966796875" x2="95.9169921875" y2="22.966796875" stroke="#000000" stroke-width="1.0"/>
<line x1="73.07568359375" y1="62.966796875" x2="73.07568359375" y2="42.966796875" stroke="#000000" stroke-width="1.0"/>
</svg>
