<?xml version='1.0' standalone='no'?>
<svg width='126.9375' height='72.966796875' version='1.1' xmlns='http://www.w3.org/2000/svg' contentScriptType='text/javascript'>
<script  id="clientEventHandlersJS">
function OnClickLingTreeNode(node){}
</script>
<rect width="100%" height="100%" fill="#ffffff"/>
<text x="10.0" y="20.0" font-family="Arial" font-size="14.0" fill="#000000">un</text>
<line x1="10.0" y1="22.966796875" x2="25.572265625" y2="22.966796875" stroke="#000000" stroke-width="1.0"/>
<text x="45.572265625" y="20.0" font-family="Arial" font-size="14.0" fill="#000000">lock</text>
<line x1="45.572265625" y1="22.966796875" x2="70.46875" y2="22.966796875" stroke="#000000" stroke-width="1.0"/>
<text x="90.46875" y="20.0" font-family="Arial" font-size="14.0" fill="#000000">able</text>
<line x1="90.46875" y1="22.966796875" x2="116.9375" y2="22.966796875" stroke="#000000" stroke-width="1.0"/>
<line x1="37.9033203125" y1="62.966796875" x2="103.703125" y2="62.966796875" stroke="#000000" stroke-width="1.0"/>
<line x1="17.7861328125" y1="42.966796875" x2="58.0205078125" y2="42.966796875" stroke="#000000" stroke-width="1.0"/>
<line x1="17.7861328125" y1="42.966796875" x2="17.7861328125" y2="22.966796875" stroke="#000000" stroke-width="1.0"/>
<line x1="58.0205078125" y1="42.966796875" x2="58.0205078125" y2="22.966796875" stroke="#000000" stroke-width="1.0"/>
<line x1="37.9033203125" y1="62.966796875" x2="37.9033203125" y2="42.966796875" stroke="#000000" stroke-width="1.0"/>
<line x1="103.703125" y1="62.966796875" x2="103.703125" y2="22.966796875" stroke="#000000" stroke-width="1.0"/>
<text x="10.0" y="20.0" font-family="Arial" font-size="14.0" fill="#000000">un</text>
<line x1="10.0" y1="22.966796875" x2="25.572265625" y2="22.966796875" stroke="#000000" stroke-width="1.0"/>
<text x="45.572265625" y="20.0" font-family="Arial" font-size="14.0" fill="#000000">lock</text>
<line x1="45.572265625" y1="22.966796875" x2="70.46875" y2="22.966796875" stroke="#000000" stroke-width="1.0"/>
<text x="90.46875" y="20.0" font-family="Arial" font-size="14.0" fill="#000000">able</text>
<line x1="90.46875" y1="22.966796875" x2="116.9375" y2="22.966796875" stroke="#000000" stroke-width="1.0"/>
<line x1="37.9033203125" y1="62.966796875" x2="103.703125" y2="62.966796875" stroke="#000000" stroke-width="1.0"/>
<line x1="17.7861328125" y1="42.966796875" x2="58.0205078125" y2="42.966796875" stroke="#000000" stroke-width="1.0"/>
<line x1="17.7861328125" y1="42.966796875" x2="17.7861328125" y2="22.966796875" stroke="#000000" stroke-width="1.0"/>
<line x1="58.0205078125" y1="42.966796875" x2="58.0205078125" y2="22.966796875" stroke="#000000" stroke-width="1.0"/>
<line x1="37.9033203125" y1="62.966796875" x2="37.9033203125" y2="42.966796875" stroke="#000000" stroke-width="1.0"/>
<line x1="103.703125" y1="62.966796875" x2="103.703125" y2="22.966796875" stroke="#000000" stroke-width="1.0"/>
<text x="10.0" y="20.0" font-family="Arial" font-size="14.0" fill="#000000">un</text>
<line x1="10.0" y1="22.966796875" x2="25.572265625" y2="22.966796875" stroke="#000000" stroke-width="1.0"/>
<text x="45.572265625" y="20.0" font-family="Arial" font-size="14.0" fill="#000000">lock</text>
<line x1="45.572265625" y1="22.966796875" x2="70.46875" y2="22.966796875" stroke="#000000" stroke-width="1.0"/>
<text x="90.46875" y="20.0" font-family="Arial" font-size="14.0" fill="#000000">able</text>
<line x1="90.46875" y1="22.966796875" x2="116.9375" y2="22.966796875" stroke="#000000" stroke-width="1.0"/>
<line x1="37.9033203125" y1="62.966796875" x2="103.703125" y2="62.966796875" stroke="#000000" stroke-width="1.0"/>
<line x1="17.7861328125" y1="42.966796875" x2="58.0205078125" y2="42.966796875" stroke="#000000" stroke-width="1.0"/>
<line x1="17.7861328125" y1="42.966796875" x2="17.7861328125" y2="22.966796875" stroke="#000000" stroke-width="1.0"/>
<line x1="58.0205078125" y1="42.966796875" x2="58.0205078125" y2="22.966796875" stroke="#000000" stroke-width="1.0"/>
<line x1="37.9033203125" y1="62.966796875" x2="37.9033203125" y2="42.966796875" stroke="#000000" stroke-width="1.0"/>
<line x1="103.703125" y1="62.966796875" x2="103.703125" y2="22.966796875" stroke="#000000" stroke-width="1.0"/>
</svg>
